<?xml version="1.0" encoding="utf-8"?>
<!-- Generator: Adobe Illustrator 24.0.1, SVG Export Plug-In . SVG Version: 6.00 Build 0)  -->
<svg version="1.1" id="Layer_1" xmlns="http://www.w3.org/2000/svg" xmlns:xlink="http://www.w3.org/1999/xlink" x="0px" y="0px"
	 viewBox="0 0 512 392.29" enable-background="new 0 0 512 392.29" xml:space="preserve">
<g>
	<g>
		<g>
			<path fill="#E3D5A6" d="M303.57,68.369c0,0,64.808-83.146,200.299-66.054l-14.243,15.134
				C489.626,17.449,389.506-11.038,303.57,68.369z"/>
			<path fill="#85C1A1" d="M355.559,42.85c0,0,67.182-30.386,156.441-2.137l-14.243,12.819
				C497.757,53.532,431.999,20.535,355.559,42.85z"/>
			<path fill="#E3D5A6" d="M163.272,197.451c0,0-29.377-13.175-69.793,18.339l6.818,4.629
				C100.297,220.418,133.647,189.577,163.272,197.451z"/>
		</g>
		<g>
			<path fill="#DBDADA" d="M235.498,89.778c-4.208-5.739-10.044-10.125-16.625-12.795c-21.091-8.558-43.807,0.546-60.678,13.831
				c-14.419,11.356-25.477,26.602-32.668,43.431l29.911,16.143c0,0,14.718-13.531,27.181-4.036c3.205,3.086,3.68,9.97,0,17.567
				l23.383,9.021l19.941-25.638l-7.834,50.802l21.603,8.652c0,0,0-109.222,0-109.306C239.712,95.094,236.773,91.517,235.498,89.778z
				 M196.922,144.75c0,0-0.178-17.982-31.692-9.97c0,0,5.968-13.089,17.389-23.858c15.029-14.171,37.456-25.279,47.775-6.766
				L196.922,144.75z"/>
			<polygon fill="#DBDADA" points="246.952,96.678 248.733,201.19 259.593,208.846 266.537,80.476 			"/>
			<path fill="#DBDADA" d="M486.124,91.515c0,0,17.743-11.037,17.745-11.039c-0.614,0.382-9.306-5.412-10.11-5.839
				c-9.002-4.773-18.367-8.873-27.942-12.354c-29.271-10.641-61.036-15.449-92.073-11.657c-23.184,2.833-45.13,11.525-63.927,25.388
				c-11.133,8.211-20.828,18.441-28.018,30.284c-7.282,11.996-14.261,27.83-11.521,42.092c1.626,8.466,4.985,16.01,10.444,22.659
				c4.103,4.997,8.065,9.48,7.654,16.372c-0.95,15.905-18.991,12.107-18.991,12.107l-1.187,25.164c0,0,17.567,22.79,37.27,22.79
				s31.098-22.315,28.724-42.73c-2.374-20.416-18.279-28.25-25.638-32.285c-7.359-4.036-27.3-7.893-28.012-27.805
				c-0.577-16.123,15.984-30.722,28.06-38.781c21.351-14.248,47.183-14.799,71.894-12.692c25.523,2.176,50.582,9.817,71.205,25.39
				l18.042-10.92c0,0-35.965-34.01-117.984-27.181c0,0,59.823-13.887,114.185,17.448l11.459-7.444c0,0-71.519-50.717-169.324-3.476
				C308.081,87.005,397.815,32.642,486.124,91.515z M316.864,208.846c-7.46,25.295-34.897,3.502-34.897,3.502
				c29.911-5.46,10.445-37.033,10.445-37.033C319.475,190.745,318.289,201.902,316.864,208.846z"/>
			<path fill="#DBDADA" d="M421.343,145.422c-0.232-6.788-1.771-13.58-5.133-19.524c-4.108-7.261-10.696-12.627-18.209-16.098
				c-11.53-5.326-24.661-6.653-37.219-6.653c-13.769,0-13.769,0-13.769,0l-52.868,33.235l13.461,27.537
				c0,0,43.917-2.374,40.831,58.636l20.416-5.46V141.13c0,0-0.237-17.804,18.517-17.804c15.2,0,25.406,14.502,23.928,26.191
				c-3.15-2.479-7.114-3.97-11.433-3.97c-10.226,0-18.517,8.29-18.517,18.517c0,10.226,8.29,18.516,18.516,18.517
				c7.87,0,14.181-5.308,17.303-12.239C420.594,162.734,421.626,153.687,421.343,145.422z M353.422,176.264
				c-7.122-16.38-30.149-20.416-30.149-20.416c10.92-12.819,30.149-28.25,30.149-28.25V176.264z"/>
			<path fill="#DBDADA" d="M150.631,252.645c30.891-10.95,49.444-33.104,46.98-53.39c-3.628-29.87-47.866-43.108-103.064-36.404
				c-34.499,4.19-65.265,20.639-82.602,39.678l41.296,29.996c20.593-18.602,41.128-32.582,62.23-40.416
				c29.951-11.119,57.08-5.44,61.351,10.683s-6.784,30.801-38.12,36.143l-15.312,48.784l19.051,23.502l31.514-18.873
				c0,0-6.944,41.662-20.119,37.745s-46.291-18.873-72.108-91.871l-40.416,20.653c0,0,44.867,82.434,97.39,100.417
				c7.122,1.246,14.6,1.602,18.339-1.068s31.514-33.116,30.802-76.915l-13.887-23.502l-23.324,21.899V252.645z"/>
			<path fill="#DBDADA" d="M243.482,255.6c-2.652-3.355-6.758-5.508-11.366-5.508c-7.998,0-14.481,6.483-14.481,14.481
				c0,7.998,6.483,14.481,14.481,14.481c0,0,10.208,1.068,14.837-4.154c4.629-5.223,9.852-10.445,11.513-42.256
				c0,0-18.517-16.973-35.846-21.247c0,0-24.807,9.852-38.814,37.508c0,0,15.193,45.817,19.466,51.633
				c0,0,22.077,0.475,21.247,7.715s-13.175,32.285-48.665,46.054l38.695,37.033c0,0,32.048-15.905,37.27-59.585l-7.597-40.357
				c0,0-25.401-5.223-29.911-8.783l-7.597-32.048c0,0,9.258-14.956,24.926-14.006C253.243,237.748,243.482,255.6,243.482,255.6z"/>
			<path fill="#DBDADA" d="M343.927,392.29l-6.41-149.082c0,0-19.229,25.401-68.131,4.273l-0.187,0.857l-4.323,19.796
				c0,0,30.149,10.92,21.603,30.861c-1.899,5.46-11.157,19.941-25.876,2.374l-2.137,28.724c0,0,23.739,26.113,34.422,24.214
				c10.683-1.899,16.143-33.472,21.84-33.235c5.697,0.237,7.359,10.445,7.359,16.38s0,49.615,0,49.615L343.927,392.29z
				 M314.253,293.535c-3.561,0.475-13.057,11.87-13.057,11.87s4.51-16.38-5.697-28.25c0,0,17.804,3.323,29.199-2.849l-1.187,29.911
				C323.511,304.218,317.814,293.06,314.253,293.535z"/>
			<path fill="#DBDADA" d="M387.844,222.555c0,0-24.451,15.193-42.73,33.472l9.021,54.837c0,0,34.422,4.036,35.609,15.905
				c1.187,11.87,1.424,29.437,0,35.846l24.214,7.359l-1.8-113.847c-0.055-3.449,2.726-6.273,6.175-6.273h21.738l11.81-35.134
				C451.881,214.721,418.052,208.846,387.844,222.555z M394.254,311.34c-5.223-10.208-32.048-28.724-32.048-28.724
				c5.697-13.531,33.472-40.594,33.472-40.594L394.254,311.34z"/>
		</g>
	</g>
	<g>
		<g>
			<path fill="#85C1A1" d="M128.65,147.698c0,0-68.013-8.012-115.372,26.529L0,166.214C0,166.214,47.64,133.098,128.65,147.698z"/>
			<path fill="#DBDADA" d="M377.273,211.398c0,0,52.21-26.157,108.607-10.18l9.676-12.119
				C495.557,189.099,428.891,179.983,377.273,211.398z"/>
		</g>
		<g>
			<path fill="#EC1E24" d="M230.609,83.289c-4.208-5.739-10.044-10.125-16.625-12.795c-21.091-8.558-43.807,0.546-60.678,13.831
				c-14.419,11.356-25.477,26.602-32.668,43.431l29.911,16.143c0,0,14.718-13.531,27.181-4.036c3.205,3.086,3.68,9.97,0,17.567
				l23.383,9.021l19.941-25.638l-7.834,50.802l21.603,8.652c0,0,0-109.222,0-109.306C234.824,88.605,231.885,85.029,230.609,83.289z
				 M192.034,138.261c0,0-0.178-17.982-31.692-9.97c0,0,5.968-13.089,17.389-23.858c15.029-14.171,37.456-25.279,47.775-6.766
				L192.034,138.261z"/>
			<polygon fill="#EC1E24" points="242.064,90.19 243.845,194.701 254.705,202.357 261.649,73.988 			"/>
			<path fill="#EC1E24" d="M481.236,85.026c0,0,17.743-11.037,17.745-11.039c-0.614,0.382-9.306-5.412-10.11-5.839
				c-9.002-4.773-18.367-8.873-27.942-12.354c-29.271-10.641-61.036-15.449-92.073-11.657c-23.184,2.833-45.13,11.525-63.927,25.388
				c-11.133,8.211-20.828,18.441-28.018,30.284c-7.282,11.996-14.261,27.83-11.521,42.092c1.626,8.466,4.985,16.01,10.444,22.659
				c4.103,4.997,8.065,9.48,7.654,16.372c-0.95,15.905-18.991,12.107-18.991,12.107l-1.187,25.164c0,0,17.567,22.79,37.27,22.79
				s31.098-22.315,28.724-42.73c-2.374-20.416-18.279-28.25-25.638-32.285c-7.359-4.036-27.3-7.893-28.012-27.805
				c-0.522-14.587,13.384-27.956,24.03-35.93c21.423-16.046,46.912-17.563,72.684-15.791c26.638,1.831,52.921,9.385,74.445,25.638
				l18.042-10.92c0,0-35.965-34.01-117.984-27.181c0,0,59.823-13.887,114.185,17.448l11.459-7.444c0,0-71.519-50.717-169.324-3.476
				C303.192,80.516,392.926,26.153,481.236,85.026z M311.976,202.357c-7.46,25.295-34.897,3.502-34.897,3.502
				c29.911-5.46,10.445-37.033,10.445-37.033C314.587,184.256,313.4,195.413,311.976,202.357z"/>
			<path fill="#EC1E24" d="M416.455,138.933c-0.232-6.788-1.771-13.58-5.133-19.524c-4.108-7.261-10.696-12.627-18.209-16.098
				c-11.53-5.326-24.661-6.653-37.219-6.653c-13.769,0-13.769,0-13.769,0l-52.868,33.235l13.461,27.537
				c0,0,43.917-2.374,40.831,58.636l20.416-5.46v-75.965c0,0-0.237-17.804,18.517-17.804c15.2,0,25.406,14.502,23.928,26.191
				c-3.15-2.479-7.114-3.97-11.433-3.97c-10.226,0-18.517,8.29-18.517,18.517c0,10.226,8.29,18.516,18.517,18.517
				c7.87,0,14.181-5.308,17.303-12.239C415.706,156.245,416.737,147.198,416.455,138.933z M348.534,169.775
				c-7.122-16.38-30.149-20.416-30.149-20.416c10.92-12.819,30.149-28.25,30.149-28.25V169.775z"/>
			<path fill="#EC1E24" d="M145.742,246.156c30.891-10.95,49.444-33.104,46.98-53.39c-3.628-29.87-47.866-43.108-103.064-36.404
				c-34.499,4.19-65.265,20.639-82.602,39.678l41.296,29.996c20.593-18.602,41.128-32.582,62.23-40.416
				c29.951-11.119,57.08-5.44,61.351,10.683s-6.784,30.801-38.12,36.143l-15.312,48.784l19.051,23.502l31.514-18.873
				c0,0-6.944,41.662-20.119,37.745s-46.291-18.873-72.108-91.871l-40.416,20.653c0,0,44.867,82.434,97.39,100.417
				c7.122,1.246,14.6,1.602,18.339-1.068c3.739-2.671,31.514-33.116,30.802-76.915l-13.887-23.502l-23.324,21.899V246.156z"/>
			<path fill="#EC1E24" d="M238.594,249.112c-2.652-3.355-6.758-5.508-11.366-5.508c-7.998,0-14.481,6.483-14.481,14.481
				c0,7.998,6.483,14.481,14.481,14.481c0,0,10.208,1.068,14.837-4.154c4.629-5.223,9.852-10.445,11.513-42.256
				c0,0-18.517-16.973-35.846-21.247c0,0-24.807,9.852-38.814,37.508c0,0,15.193,45.817,19.466,51.633
				c0,0,22.077,0.475,21.247,7.715c-0.831,7.24-13.175,32.285-48.665,46.054l38.695,37.033c0,0,32.048-15.905,37.27-59.585
				l-7.597-40.357c0,0-25.401-5.223-29.911-8.784l-7.597-32.048c0,0,9.258-14.956,24.926-14.006
				C248.355,231.259,238.594,249.112,238.594,249.112z"/>
			<path fill="#EC1E24" d="M339.039,385.801l-6.41-149.082c0,0-19.229,25.401-68.131,4.273l-0.187,0.857l-4.323,19.796
				c0,0,30.149,10.92,21.603,30.861c-1.899,5.46-11.157,19.941-25.876,2.374l-2.137,28.724c0,0,23.739,26.113,34.422,24.214
				c10.683-1.899,16.143-33.472,21.84-33.235c5.697,0.237,7.359,10.445,7.359,16.38c0,5.935,0,49.615,0,49.615L339.039,385.801z
				 M309.365,287.046c-3.561,0.475-13.057,11.87-13.057,11.87s4.51-16.38-5.697-28.25c0,0,17.804,3.323,29.199-2.849l-1.187,29.911
				C318.623,297.729,312.926,286.572,309.365,287.046z"/>
			<path fill="#EC1E24" d="M382.956,216.066c0,0-24.451,15.193-42.73,33.472l9.021,54.837c0,0,34.422,4.036,35.609,15.905
				c1.187,11.87,1.424,29.437,0,35.846l24.214,7.359l-1.8-113.847c-0.055-3.449,2.726-6.273,6.175-6.273h21.738l11.81-35.134
				C446.992,208.232,413.164,202.357,382.956,216.066z M389.366,304.851c-5.223-10.208-32.048-28.724-32.048-28.724
				c5.697-13.531,33.472-40.594,33.472-40.594L389.366,304.851z"/>
		</g>
	</g>
	<g>
		<circle cx="455.123" cy="141.923" r="5.499"/>
		<circle cx="264.119" cy="291.435" r="1.976"/>
		<circle fill="#85C1A1" cx="273.618" cy="85.225" r="2.711"/>
		<circle fill="#FCEC04" cx="434.707" cy="164.315" r="5.46"/>
		<circle fill="#C6A182" cx="141.529" cy="219.069" r="3.003"/>
		<circle fill="#F89C1C" cx="434.707" cy="133.713" r="2.711"/>
		<circle fill="#C03326" cx="466.043" cy="176.778" r="2.711"/>
		<circle fill="#C6A182" cx="425.686" cy="179.983" r="3.205"/>
		<circle fill="#85C1A1" cx="67.53" cy="125.239" r="3.205"/>
		<circle fill="#FCEC04" cx="158.384" cy="206.907" r="3.205"/>
		<circle fill="#85C1A1" cx="111.047" cy="231.749" r="4.149"/>
		<circle fill="#85C1A1" cx="192.941" cy="309.718" r="3.205"/>
		<circle fill="#85C1A1" cx="261.649" cy="280.162" r="3.205"/>
		<circle fill="#85C1A1" cx="343.43" cy="229.835" r="3.205"/>
		<circle fill="#DBDADA" cx="128.037" cy="216.066" r="2.468"/>
		<circle cx="102.467" cy="256.671" r="2.468"/>
		<circle cx="382.956" cy="191.705" r="3.946"/>
		<circle fill="#FCEC04" cx="281.025" cy="73.988" r="3.946"/>
		<circle fill="#C6A182" cx="102.467" cy="118.106" r="2.17"/>
		<circle fill="#E3D5A6" cx="401.473" cy="187.76" r="1.266"/>
		<circle cx="150.629" cy="210.112" r="1.266"/>
		<circle cx="106.404" cy="130.71" r="3.003"/>
		<circle fill="#FCEC04" cx="88.362" cy="127.707" r="2.468"/>
		<circle fill="#E3D5A6" cx="115.196" cy="113.098" r="1.266"/>
		<circle cx="84.628" cy="115.936" r="1.266"/>
		<circle fill="#F89C1C" cx="115.196" cy="254.203" r="1.266"/>
		<circle fill="#85C1A1" cx="108.164" cy="276.957" r="1.266"/>
		<circle fill="#FCEC04" cx="95.415" cy="227.6" r="2.236"/>
		<circle fill="#C6A182" cx="455.123" cy="164.315" r="1.266"/>
		<circle fill="#FCEC04" cx="272.445" cy="288.038" r="2.804"/>
	</g>
</g>
</svg>
