<?xml version="1.0" encoding="UTF-8"?>
<svg xmlns="http://www.w3.org/2000/svg" version="1.1" width="500" height="500" viewBox="0 0 500 500"><rect x="0" y="0" width="500" height="500" fill="#ffffff"/><g transform="scale(23.81)"><g transform="translate(0,0)"><path fill-rule="evenodd" d="M12 0L12 2L11 2L11 1L10 1L10 4L9 4L9 3L8 3L8 5L9 5L9 6L8 6L8 7L9 7L9 6L10 6L10 7L11 7L11 6L12 6L12 7L13 7L13 6L12 6L12 5L13 5L13 0ZM11 3L11 4L10 4L10 6L11 6L11 5L12 5L12 3ZM0 8L0 11L2 11L2 13L5 13L5 12L6 12L6 13L7 13L7 12L9 12L9 11L8 11L8 10L10 10L10 13L8 13L8 16L9 16L9 17L10 17L10 19L8 19L8 21L10 21L10 20L14 20L14 21L15 21L15 20L16 20L16 21L17 21L17 20L19 20L19 21L20 21L20 20L19 20L19 19L21 19L21 18L17 18L17 16L20 16L20 17L21 17L21 16L20 16L20 14L19 14L19 13L21 13L21 11L20 11L20 10L19 10L19 9L18 9L18 8L16 8L16 10L17 10L17 12L15 12L15 13L14 13L14 11L15 11L15 9L14 9L14 11L13 11L13 9L12 9L12 8L11 8L11 9L8 9L8 8L5 8L5 9L2 9L2 8ZM1 9L1 10L2 10L2 9ZM5 9L5 10L3 10L3 11L5 11L5 10L8 10L8 9ZM17 9L17 10L18 10L18 9ZM11 10L11 11L12 11L12 10ZM6 11L6 12L7 12L7 11ZM19 11L19 12L18 12L18 13L19 13L19 12L20 12L20 11ZM0 12L0 13L1 13L1 12ZM11 13L11 14L12 14L12 15L9 15L9 16L10 16L10 17L11 17L11 18L12 18L12 17L13 17L13 19L14 19L14 20L15 20L15 19L16 19L16 16L17 16L17 15L18 15L18 14L16 14L16 13L15 13L15 14L14 14L14 13L13 13L13 14L12 14L12 13ZM15 14L15 15L13 15L13 16L14 16L14 17L15 17L15 15L16 15L16 14ZM11 16L11 17L12 17L12 16ZM14 18L14 19L15 19L15 18ZM0 0L0 7L7 7L7 0ZM1 1L1 6L6 6L6 1ZM2 2L2 5L5 5L5 2ZM14 0L14 7L21 7L21 0ZM15 1L15 6L20 6L20 1ZM16 2L16 5L19 5L19 2ZM0 14L0 21L7 21L7 14ZM1 15L1 20L6 20L6 15ZM2 16L2 19L5 19L5 16Z" fill="#000000"/></g></g></svg>
